<?xml version="1.0" encoding="UTF-8" standalone="no"?>
<svg
   height="48"
   width="48"
   version="1.1"
   id="svg4"
   sodipodi:docname="theme_tpl4.svg"
   inkscape:version="1.2.1 (9c6d41e, 2022-07-14)"
   xmlns:inkscape="http://www.inkscape.org/namespaces/inkscape"
   xmlns:sodipodi="http://sodipodi.sourceforge.net/DTD/sodipodi-0.dtd"
   xmlns="http://www.w3.org/2000/svg"
   xmlns:svg="http://www.w3.org/2000/svg">
  <defs
     id="defs8" />
  <sodipodi:namedview
     id="namedview6"
     pagecolor="#ffffff"
     bordercolor="#666666"
     borderopacity="1.0"
     inkscape:showpageshadow="2"
     inkscape:pageopacity="0.0"
     inkscape:pagecheckerboard="0"
     inkscape:deskcolor="#d1d1d1"
     showgrid="false"
     inkscape:zoom="8.0000001"
     inkscape:cx="-20.6875"
     inkscape:cy="22.5"
     inkscape:window-width="1872"
     inkscape:window-height="1017"
     inkscape:window-x="48"
     inkscape:window-y="27"
     inkscape:window-maximized="1"
     inkscape:current-layer="layer1" />
  <g
     inkscape:groupmode="layer"
     id="layer2"
     inkscape:label="Layer 2"
     style="stroke:none;fill:#1a1a1a">
    <rect
       style="opacity:1;fill:#1a1a1a;fill-opacity:1;stroke:none;stroke-width:13.2283;stroke-linecap:round;stroke-linejoin:round;stroke-miterlimit:4;stroke-dasharray:none;paint-order:markers fill stroke"
       id="rect172"
       width="48"
       height="48"
       x="0"
       y="0"
       rx="16"
       ry="16" />
  </g>
  <g
     inkscape:groupmode="layer"
     id="layer1"
     inkscape:label="Layer 1"
     style="display:inline">
    <path
       d="m 22.344744,44.406446 q -1.500766,0 -2.62634,-1.125573 -1.125574,-1.125575 -1.125574,-2.670481 v -8.210068 h -5.429239 q -1.721466,0 -2.935321,-1.213856 -1.2138543,-1.213853 -1.2138543,-2.93532 V 16.200883 q 0,-3.707771 2.3835683,-6.157551 2.38357,-2.4497784 6.091343,-2.4497784 H 38.985584 V 28.251148 q 0,1.721467 -1.235924,2.93532 -1.235924,1.213856 -2.95739,1.213856 h -5.3851 v 8.210068 q 0,1.544906 -1.147645,2.670481 -1.147644,1.125573 -2.64841,1.125573 z M 13.163591,21.453564 H 34.79227 v -9.666695 h -2.471851 v 5.385099 q 0,0.573823 -0.37519,0.949013 -0.375192,0.375192 -0.949014,0.375192 -0.57382,0 -0.949013,-0.375192 -0.375191,-0.37519 -0.375191,-0.949013 v -5.385099 h -3.133952 v 2.427709 q 0,0.573822 -0.375191,0.949013 -0.375192,0.375191 -0.949014,0.375191 -0.573821,0 -0.949013,-0.375191 -0.375192,-0.375191 -0.375192,-0.949013 v -2.427709 h -6.400322 q -2.030449,0 -3.178093,1.191784 -1.147643,1.191785 -1.147643,3.22223 z m 0,6.797584 H 34.79227 V 24.101972 H 13.163591 Z m 0,-4.149176 v 4.149176 z"
       id="path2"
       style="opacity:0.9;fill:#ffffff;stroke:none;stroke-width:0.17656;stroke-dasharray:none;stroke-opacity:1" />
  </g>
</svg>
