<?xml version="1.0" encoding="UTF-8" standalone="no"?>
<svg
   enable-background="new 0 0 20 20"
   height="48"
   viewBox="0 0 20 20"
   width="48"
   fill="#ffffff"
   version="1.1"
   id="svg16"
   sodipodi:docname="architecture_white_48dp.svg"
   xml:space="preserve"
   xmlns:inkscape="http://www.inkscape.org/namespaces/inkscape"
   xmlns:sodipodi="http://sodipodi.sourceforge.net/DTD/sodipodi-0.dtd"
   xmlns="http://www.w3.org/2000/svg"
   xmlns:svg="http://www.w3.org/2000/svg"><defs
     id="defs20" /><sodipodi:namedview
     id="namedview18"
     pagecolor="#ffffff"
     bordercolor="#666666"
     borderopacity="1.0"
     inkscape:showpageshadow="2"
     inkscape:pageopacity="0.0"
     inkscape:pagecheckerboard="0"
     inkscape:deskcolor="#d1d1d1"
     showgrid="false" /><g
     inkscape:groupmode="layer"
     id="layer1"
     inkscape:label="Layer 1"><rect
       style="fill:#1a1a1a;stroke-width:0.833333;stroke-linecap:round;stroke-linejoin:round;paint-order:stroke fill markers"
       id="rect317"
       width="20"
       height="20"
       x="0"
       y="0"
       rx="6.6666665"
       ry="6.6666665" /></g><g
     inkscape:groupmode="layer"
     id="layer3"
     inkscape:label="Layer 3"><path
       d="m 9.9721558,19.105132 q -3.2577997,0 -5.541044,-2.227556 -2.2832441,-2.227554 -2.2832441,-5.45751 0,-1.5871327 0.6125776,-2.9375885 Q 3.3730231,7.1320222 4.4032674,6.0182444 L 9.3595779,1.1454672 q 0.1113774,-0.1113773 0.2784446,-0.18098885 0.1670666,-0.0696109 0.3619772,-0.0696109 0.1949113,0 0.3619783,0.0696109 0.167066,0.0696119 0.306288,0.18098925 l 4.928467,4.8727773 q 1.030244,1.1137776 1.642822,2.5059997 0.612577,1.3922224 0.612577,2.8958214 0,3.202111 -2.297166,5.443589 -2.297166,2.241477 -5.5828102,2.241477 z m 0.027844,-0.974555 V 1.9251115 L 5.1272226,6.7143555 Q 4.152667,7.6889109 3.6375449,8.8723001 3.1224227,10.055688 3.1224227,11.420066 q 0,2.81229 2.018722,4.7614 2.018722,1.949111 4.8588551,1.949111 z"
       id="path359"
       style="stroke-width:0.556889" /></g><g
     inkscape:groupmode="layer"
     id="layer2"
     inkscape:label="Layer 2"><g
       id="g14"
       transform="translate(-0.005)"><g
         id="g12"><path
           d="M 6.67,14.89 6.79,16 7.6,15.23 9.52,9.95 C 9.19,9.9 8.87,9.79 8.58,9.63 Z"
           id="path6" /><path
           d="M 11.42,9.63 C 11.13,9.79 10.81,9.9 10.47,9.95 l 1.92,5.28 0.82,0.77 0.13,-1.11 z"
           id="path8"
           style="fill:#4d4d4d" /><path
           d="M 12,7 C 12,6.07 11.36,5.29 10.5,5.07 V 4 h -1 V 5.07 C 8.64,5.29 8,6.07 8,7 8,8.1 8.9,9 10,9 11.1,9 12,8.1 12,7 Z M 10,8 C 9.45,8 9,7.55 9,7 9,6.45 9.45,6 10,6 c 0.55,0 1,0.45 1,1 0,0.55 -0.45,1 -1,1 z"
           id="path10" /><path
           id="rect478"
           style="fill:#333333;stroke-width:0.833333;stroke-linecap:round;stroke-linejoin:round;paint-order:stroke fill markers"
           d="m 10,3.9998372 v 2.0003256 c 0.547767,0.00267 0.99528,0.4517998 0.99528,1.0001627 0,0.548363 -0.447513,0.9966821 -0.99528,0.999349 v 1.0001627 c 1.097767,-0.00267 1.994629,-0.9011488 1.994629,-1.9995117 0,-0.929999 -0.639838,-1.7103387 -1.499837,-1.9303385 V 3.9998372 Z"
           transform="translate(0.005)" /></g></g></g></svg>
